<svg width="150" height="150" viewBox="0 0 150 150" fill="none" xmlns="http://www.w3.org/2000/svg">
<path d="M74.9999 0C33.6457 0 0 33.6457 0 74.9998C0 116.354 33.6457 150 74.9999 150C116.354 150 150 116.354 150 74.9998C150 33.6457 116.354 0 74.9999 0ZM74.9999 143.478C37.239 143.478 6.52163 112.761 6.52163 74.9998C6.52163 37.239 37.239 6.52163 74.9999 6.52163C112.761 6.52163 143.478 37.239 143.478 74.9998C143.478 112.761 112.761 143.478 74.9999 143.478Z" fill="#506056"/>
<path d="M74.9998 71.7392C51.6258 71.7392 32.6085 90.7566 32.6085 114.131C32.6085 115.931 34.0694 117.392 35.8694 117.392C37.6694 117.392 39.1304 115.93 39.1304 114.13C39.1304 94.3498 55.2194 78.2608 74.9998 78.2608C94.7803 78.2608 110.869 94.3498 110.869 114.13C110.869 115.93 112.33 117.391 114.13 117.391C115.93 117.391 117.391 115.93 117.391 114.13C117.391 90.7566 98.3738 71.7392 74.9998 71.7392Z" fill="#506056"/>
<path d="M74.9998 19.5652C62.413 19.5652 52.1737 29.8042 52.1737 42.3914C52.1737 54.9785 62.4127 65.2175 74.9998 65.2175C87.587 65.2175 97.826 54.9782 97.826 42.3914C97.826 29.8045 87.587 19.5652 74.9998 19.5652ZM74.9998 58.6956C66.013 58.6956 58.6956 51.3782 58.6956 42.3914C58.6956 33.4045 66.013 26.0871 74.9998 26.0871C83.9867 26.0871 91.3041 33.4045 91.3041 42.3914C91.3041 51.3782 83.987 58.6956 74.9998 58.6956Z" fill="#506056"/>
</svg>
