<svg width="20" height="20" viewBox="0 0 20 20" fill="none" xmlns="http://www.w3.org/2000/svg">
<g clip-path="url(#clip0)">
<path d="M19.9925 5.33918C19.8442 2.37 17.3808 0 14.375 0C12.6592 0 11.0633 0.77332 10 2.095C8.93582 0.77332 7.34 0 5.625 0C2.61918 0 0.15668 2.37 0.0075 5.33918C0.0025 5.36418 0 5.39 0 5.41668V5.625C0 5.65168 0.0025 5.6775 0.0075 5.70168C0.24832 10.6309 6.58418 18.0267 9.78582 19.9409C9.85164 19.9809 9.92582 20 10 20C10.0742 20 10.1483 19.9809 10.2142 19.9409C13.415 18.0267 19.7517 10.6309 19.9925 5.70168C19.9975 5.6775 20 5.65168 20 5.625V5.41668C20 5.39 19.9975 5.365 19.9925 5.33918ZM10 19.0925C6.79918 17.0217 0.92668 9.91918 0.83418 5.52082C0.88918 2.92664 3.0175 0.83332 5.625 0.83332C7.25582 0.83332 8.76082 1.655 9.65 3.03164C9.80332 3.26996 10.1967 3.26914 10.35 3.03164C11.2383 1.655 12.7433 0.83332 14.375 0.83332C16.9825 0.83332 19.1108 2.92664 19.1658 5.52082C19.0733 9.91918 13.2008 17.0217 10 19.0925Z" fill="#F6EFE7"/>
</g>
<defs>
<clipPath id="clip0">
<rect width="20" height="20" fill="white"/>
</clipPath>
</defs>
</svg>
