<svg width="40" height="40" viewBox="0 0 40 40" fill="none" xmlns="http://www.w3.org/2000/svg">
<path d="M35.8334 4.16663H7.5C5.20164 4.16663 3.33336 6.03499 3.33336 8.33327V31.6666C3.33336 32.1266 3.70672 32.5 4.16672 32.5C4.62672 32.5 5 32.1266 5 31.6666V8.33334C5 6.95499 6.12164 5.83334 7.5 5.83334H35.8334C37.2117 5.83334 38.3333 6.95499 38.3333 8.33334V31.6667C38.3333 33.0451 37.2117 34.1667 35.8334 34.1667H4.16664C3.70664 34.1667 3.33328 34.5401 3.33328 35.0001C3.33328 35.4601 3.70664 35.8334 4.16664 35.8334H35.8333C38.1316 35.8334 39.9999 33.9651 39.9999 31.6668V8.33334C40 6.03499 38.1316 4.16663 35.8334 4.16663Z" fill="#506056"/>
<path d="M7.5 34.1666H4.16664C2.78828 34.1666 1.66664 33.045 1.66664 31.6666V13.3333C1.66664 11.955 2.78828 10.8333 4.16664 10.8333C4.62664 10.8333 5 10.46 5 9.99999C5 9.53999 4.62664 9.16663 4.16664 9.16663C1.86836 9.16663 0 11.035 0 13.3333V31.6667C0 33.9651 1.86836 35.8333 4.16664 35.8333H7.5C7.96 35.8333 8.33336 35.46 8.33336 35C8.33336 34.54 7.96 34.1666 7.5 34.1666Z" fill="#506056"/>
<path d="M20.8333 19.1666H7.49999C7.03999 19.1666 6.66663 19.54 6.66663 20V30C6.66663 30.46 7.03999 30.8333 7.49999 30.8333H20.8333C21.2933 30.8333 21.6667 30.46 21.6667 30V20C21.6666 19.54 21.2933 19.1666 20.8333 19.1666ZM20 29.1666H8.33334V20.8333H20V29.1666Z" fill="#506056"/>
<path d="M35.8334 19.1666H24.1666C23.7066 19.1666 23.3333 19.54 23.3333 20C23.3333 20.46 23.7066 20.8333 24.1666 20.8333H35.8333C36.2933 20.8333 36.6666 20.46 36.6666 20C36.6666 19.54 36.2934 19.1666 35.8334 19.1666Z" fill="#506056"/>
<path d="M35.8334 24.1666H24.1666C23.7066 24.1666 23.3333 24.54 23.3333 25C23.3333 25.46 23.7066 25.8333 24.1666 25.8333H35.8333C36.2933 25.8333 36.6666 25.46 36.6666 25C36.6666 24.54 36.2934 24.1666 35.8334 24.1666Z" fill="#506056"/>
<path d="M35.8334 29.1666H24.1666C23.7066 29.1666 23.3333 29.54 23.3333 30C23.3333 30.46 23.7066 30.8333 24.1666 30.8333H35.8333C36.2933 30.8333 36.6666 30.46 36.6666 30C36.6666 29.54 36.2934 29.1666 35.8334 29.1666Z" fill="#506056"/>
<path d="M35.8333 14.1666H7.49999C7.03999 14.1666 6.66663 14.54 6.66663 15C6.66663 15.46 7.03999 15.8333 7.49999 15.8333H35.8333C36.2933 15.8333 36.6667 15.46 36.6667 15C36.6667 14.54 36.2933 14.1666 35.8333 14.1666Z" fill="#506056"/>
<path d="M35.8333 9.16663H7.49999C7.03999 9.16663 6.66663 9.53999 6.66663 9.99998C6.66663 10.46 7.03999 10.8333 7.49999 10.8333H35.8333C36.2933 10.8333 36.6667 10.46 36.6667 9.99998C36.6667 9.53999 36.2933 9.16663 35.8333 9.16663Z" fill="#506056"/>
</svg>
