<svg width="40" height="40" viewBox="0 0 40 40" fill="none" xmlns="http://www.w3.org/2000/svg">
<path d="M30.833 29.9999C28.5364 29.9999 26.6664 31.8699 26.6664 34.1665C26.6664 36.4631 28.5364 38.3331 30.833 38.3331C33.1297 38.3331 34.9996 36.4632 34.9996 34.1666C34.9996 31.8699 33.1297 29.9999 30.833 29.9999ZM30.833 36.6665C29.4547 36.6665 28.3331 35.5449 28.3331 34.1666C28.3331 32.7882 29.4547 31.6666 30.833 31.6666C32.2114 31.6666 33.333 32.7882 33.333 34.1666C33.333 35.5448 32.2113 36.6665 30.833 36.6665Z" fill="#506056"/>
<path d="M14.1665 29.9999C11.8699 29.9999 9.99988 31.8699 9.99988 34.1665C9.99988 36.4631 11.8699 38.3331 14.1665 38.3331C16.4631 38.3331 18.3331 36.4631 18.3331 34.1665C18.3331 31.8699 16.4632 29.9999 14.1665 29.9999ZM14.1665 36.6665C12.7881 36.6665 11.6665 35.5449 11.6665 34.1666C11.6665 32.7882 12.7881 31.6666 14.1665 31.6666C15.5448 31.6666 16.6665 32.7882 16.6665 34.1666C16.6665 35.5448 15.5448 36.6665 14.1665 36.6665Z" fill="#506056"/>
<path d="M35.833 26.6666H14.9315C12.9532 26.6666 11.2349 25.2583 10.8465 23.3167L6.64993 2.33686C6.57158 1.94687 6.22994 1.66687 5.8333 1.66687H0.833351C0.373356 1.66687 0 2.04015 0 2.50014C0 2.96014 0.373356 3.33349 0.833351 3.33349H5.14995L9.21155 23.6449C9.7549 26.3616 12.1615 28.3333 14.9315 28.3333H35.8329C36.2929 28.3333 36.6663 27.9599 36.6663 27.4999C36.6663 27.0399 36.293 26.6666 35.833 26.6666Z" fill="#506056"/>
<path d="M39.7962 6.95345C39.6379 6.77181 39.4079 6.66681 39.1662 6.66681H7.49992C7.03992 6.66681 6.66656 7.04016 6.66656 7.50016C6.66656 7.96016 7.03992 8.33343 7.49992 8.33343H38.2046L36.858 17.7817C36.8046 18.1551 36.5064 18.4467 36.133 18.4917L9.90153 21.6717C9.44318 21.7283 9.11818 22.1433 9.17318 22.6C9.22482 23.0234 9.58318 23.3334 9.99981 23.3334C10.0332 23.3334 10.0665 23.3317 10.0998 23.3284L36.3312 20.1468C37.4512 20.0101 38.3445 19.1351 38.5045 18.0184L39.9912 7.61688C40.0262 7.37844 39.9546 7.13509 39.7962 6.95345Z" fill="#506056"/>
</svg>
