<svg width="40" height="40" viewBox="0 0 40 40" fill="none" xmlns="http://www.w3.org/2000/svg">
<path d="M20 20.0515C9.45884 20.0515 0.882721 28.6277 0.882721 39.1688C0.882721 39.6276 1.25512 40 1.71393 40C2.17275 40 2.54514 39.6276 2.54514 39.1688C2.54514 29.5437 10.3749 21.7139 20 21.7139C29.6252 21.7139 37.4549 29.5437 37.4549 39.1688C37.4549 39.6276 37.8273 40 38.2862 40C38.745 40 39.1174 39.6276 39.1174 39.1688C39.1173 28.626 30.5411 20.0515 20 20.0515Z" fill="#506056"/>
<path d="M19.9999 0C14.9596 0 10.8569 4.10104 10.8569 9.14301C10.8569 14.185 14.9597 18.286 19.9999 18.286C25.0402 18.286 29.143 14.185 29.143 9.14301C29.143 4.10104 25.0403 0 19.9999 0ZM19.9999 16.6237C15.8756 16.6237 12.5193 13.2674 12.5193 9.14301C12.5193 5.01867 15.8756 1.66235 19.9999 1.66235C24.1243 1.66235 27.4806 5.01867 27.4806 9.14301C27.4806 13.2674 24.1243 16.6237 19.9999 16.6237Z" fill="#506056"/>
</svg>
