<svg width="20" height="20" viewBox="0 0 20 20" fill="none" xmlns="http://www.w3.org/2000/svg">
<g clip-path="url(#clip0)">
<path d="M16.9565 0H3.04349C1.3652 0 0 1.3652 0 3.04349V12.6087C0 14.287 1.3652 15.6522 3.04349 15.6522H12.4287L16.6487 19.873C16.7322 19.9557 16.8435 20 16.9566 20C17.0122 20 17.0687 19.9887 17.1227 19.9669C17.2852 19.9 17.3913 19.7408 17.3913 19.5652V15.6217C18.8644 15.4096 20 14.1391 20 12.6087V3.04349C20 1.3652 18.6348 0 16.9565 0ZM19.1304 12.6087C19.1304 13.8078 18.1548 14.7826 16.9565 14.7826C16.7165 14.7826 16.5217 14.9774 16.5217 15.2174V18.5156L12.9165 14.9095C12.8348 14.8287 12.7243 14.7826 12.6087 14.7826H3.04349C1.84524 14.7826 0.869592 13.8078 0.869592 12.6087V3.04349C0.869592 1.84435 1.84524 0.869592 3.04349 0.869592H16.9565C18.1548 0.869592 19.1304 1.84439 19.1304 3.04349V12.6087Z" fill="#F6EFE7"/>
<path d="M9.99991 10.4348C9.28076 10.4348 8.69556 11.02 8.69556 11.7391C8.69556 12.4583 9.28076 13.0435 9.99991 13.0435C10.7191 13.0435 11.3043 12.4583 11.3043 11.7391C11.3043 11.02 10.7191 10.4348 9.99991 10.4348ZM9.99991 12.1739C9.75991 12.1739 9.56511 11.9783 9.56511 11.7391C9.56511 11.5 9.75991 11.3043 9.99991 11.3043C10.2399 11.3043 10.4347 11.5 10.4347 11.7391C10.4347 11.9783 10.2399 12.1739 9.99991 12.1739Z" fill="#F6EFE7"/>
<path d="M11.3895 3.02433C11.1434 2.76 10.7956 2.6087 10.4347 2.6087H9.56517C9.20431 2.6087 8.85736 2.76 8.61124 3.02433C8.36517 3.28781 8.23905 3.6452 8.26428 4.01217L8.63211 8.2965C8.68253 9.00782 9.28082 9.56518 9.99993 9.56518C10.713 9.56518 11.3113 9.00778 11.3608 8.30343L11.7356 4.00606C11.7617 3.6461 11.6356 3.28871 11.3895 3.02433ZM10.8695 3.93738L10.4939 8.23565C10.4756 8.49391 10.2582 8.69563 9.993 8.69563C9.73388 8.69563 9.51736 8.49391 9.4982 8.22868L9.13123 3.94435C9.12255 3.82174 9.16339 3.7052 9.24687 3.61651C9.33035 3.52781 9.44338 3.47825 9.56513 3.47825H10.4347C10.5565 3.47825 10.6695 3.52781 10.753 3.61651C10.8365 3.7052 10.8774 3.82174 10.8695 3.93738Z" fill="#F6EFE7"/>
</g>
<defs>
<clipPath id="clip0">
    <filter id="f3" x="0" y="0" width="200%" height="200%">
        <feOffset result="offOut" in="SourceAlpha" dx="20" dy="20" />
        <feGaussianBlur result="blurOut" in="offOut" stdDeviation="10" />
        <feBlend in="SourceGraphic" in2="blurOut" mode="normal" />
    </filter>
<rect width="20" height="20" fill="white"/>
</clipPath>
</defs>
</svg>
