<svg width="20" height="20" viewBox="0 0 20 20" fill="none" xmlns="http://www.w3.org/2000/svg">
<path d="M9.99982 3.33331C8.39149 3.33331 7.08313 4.64163 7.08313 6.24999C7.08313 7.85835 8.39145 9.16667 9.99982 9.16667C11.6082 9.16667 12.9165 7.85835 12.9165 6.24999C12.9165 4.64163 11.6082 3.33331 9.99982 3.33331ZM9.99982 8.33331C8.85063 8.33331 7.91649 7.39913 7.91649 6.24999C7.91649 5.10085 8.85067 4.16667 9.99982 4.16667C11.149 4.16667 12.0831 5.10085 12.0831 6.24999C12.0831 7.39913 11.149 8.33331 9.99982 8.33331Z" fill="#506056"/>
<path d="M19.5132 19.3525L16.1798 14.3525C16.1023 14.2367 15.9723 14.1667 15.8332 14.1667H11.7915C11.5615 14.1667 11.3748 14.3534 11.3748 14.5834C11.3748 14.8134 11.5615 15 11.7915 15H15.6107L18.3882 19.1667H1.61229L4.38979 15H8.20811C8.43811 15 8.62479 14.8133 8.62479 14.5833C8.62479 14.3533 8.43811 14.1666 8.20811 14.1666H4.16647C4.02729 14.1666 3.89729 14.2366 3.81979 14.3516L0.486471 19.3516C0.401471 19.48 0.39315 19.6441 0.466471 19.78C0.53815 19.915 0.678971 20 0.83315 20H19.1665C19.3207 20 19.4615 19.915 19.5332 19.7808C19.6065 19.645 19.599 19.48 19.5132 19.3525Z" fill="#506056"/>
<path d="M9.99988 0C6.5532 0 3.74988 2.80332 3.74988 6.25C3.74988 9.575 9.42738 17.0217 9.66988 17.3367C9.7482 17.44 9.8707 17.5 9.99988 17.5C10.1291 17.5 10.2516 17.44 10.3299 17.3367C10.5724 17.0217 16.2499 9.575 16.2499 6.25C16.2499 2.80332 13.4466 0 9.99988 0ZM9.99988 16.3875C8.77656 14.7317 4.58324 8.86332 4.58324 6.25C4.58324 3.26332 7.01324 0.83332 9.99992 0.83332C12.9866 0.83332 15.4166 3.26332 15.4166 6.25C15.4166 8.86332 11.2232 14.7317 9.99988 16.3875Z" fill="#506056"/>
</svg>
