<svg width="30" height="30" viewBox="0 0 30 30" fill="none" xmlns="http://www.w3.org/2000/svg">
<g clip-path="url(#clip0)">
<path d="M27.1875 28.75H2.8125C2.54375 28.75 2.305 28.5775 2.22 28.3225L0.970004 24.5725C0.906254 24.3825 0.938754 24.1725 1.055 24.01C1.1725 23.8463 1.36125 23.75 1.5625 23.75H28.4375C28.6388 23.75 28.8275 23.8463 28.945 24.01C29.0625 24.1725 29.095 24.3825 29.03 24.5725L27.78 28.3225C27.695 28.5775 27.4563 28.75 27.1875 28.75ZM3.2625 27.5H26.7375L27.5713 25H2.43L3.2625 27.5Z" fill="#F6EFE7"/>
<path d="M28.125 25H1.875C0.84125 25 0 24.1588 0 23.125C0 22.0912 0.84125 21.25 1.875 21.25H28.125C29.1588 21.25 30 22.0912 30 23.125C30 24.1588 29.1588 25 28.125 25ZM1.875 22.5C1.53 22.5 1.25 22.7812 1.25 23.125C1.25 23.4688 1.53 23.75 1.875 23.75H28.125C28.47 23.75 28.75 23.4688 28.75 23.125C28.75 22.7812 28.47 22.5 28.125 22.5H1.875Z" fill="#F6EFE7"/>
<path d="M28.1138 22.5C28.1013 22.5 28.0888 22.5 28.0776 22.4988C27.7338 22.4788 27.4701 22.1838 27.4901 21.84C27.5001 21.64 27.5001 21.45 27.5001 21.25C27.5001 14.3575 21.8926 8.75 15.0001 8.75C8.10756 8.75 2.50006 14.3575 2.50006 21.25C2.50006 21.45 2.50006 21.64 2.51131 21.84C2.53131 22.1838 2.26756 22.48 1.92381 22.4988C1.57256 22.5325 1.28381 22.2562 1.26381 21.91C1.25006 21.6862 1.25006 21.475 1.25006 21.25C1.25006 13.6687 7.41881 7.5 15.0001 7.5C22.5813 7.5 28.7501 13.6687 28.7501 21.25C28.7501 21.475 28.7501 21.6862 28.7363 21.91C28.7176 22.2437 28.4426 22.5 28.1138 22.5Z" fill="#F6EFE7"/>
<path d="M15.0001 8.75C14.6551 8.75 14.3751 8.47 14.3751 8.125V5.625C14.3751 5.28 14.6551 5 15.0001 5C15.3451 5 15.625 5.28 15.625 5.625V8.125C15.625 8.47 15.3451 8.75 15.0001 8.75Z" fill="#F6EFE7"/>
<path d="M15.0001 6.25003C13.6213 6.25003 12.5001 5.12878 12.5001 3.75003C12.5001 2.37128 13.6213 1.25003 15.0001 1.25003C16.3788 1.25003 17.5001 2.37128 17.5001 3.75003C17.5001 5.12878 16.3788 6.25003 15.0001 6.25003ZM15.0001 2.50003C14.3113 2.50003 13.7501 3.06003 13.7501 3.75003C13.7501 4.44003 14.3113 5.00003 15.0001 5.00003C15.6888 5.00003 16.2501 4.44003 16.2501 3.75003C16.2501 3.06003 15.6888 2.50003 15.0001 2.50003Z" fill="#F6EFE7"/>
<path d="M24.3749 20C24.0299 20 23.7499 19.72 23.7499 19.375C23.7499 15.585 20.6662 12.5 16.8749 12.5C16.5299 12.5 16.2499 12.22 16.2499 11.875C16.2499 11.53 16.5299 11.25 16.8749 11.25C21.3549 11.25 24.9999 14.895 24.9999 19.375C24.9999 19.72 24.7199 20 24.3749 20Z" fill="#F6EFE7"/>
</g>
<defs>
<clipPath id="clip0">
<rect width="30" height="30" fill="white"/>
</clipPath>
</defs>
</svg>
