<svg width="30" height="30" viewBox="0 0 30 30" fill="none" xmlns="http://www.w3.org/2000/svg">
<g clip-path="url(#clip0)">
<path d="M25.625 30H4.375C3.34125 30 2.5 29.1588 2.5 28.125V8.125C2.5 7.78 2.78 7.5 3.125 7.5H26.875C27.22 7.5 27.5 7.78 27.5 8.125V28.125C27.5 29.1588 26.6588 30 25.625 30ZM3.75 8.75V28.125C3.75 28.47 4.03125 28.75 4.375 28.75H25.625C25.9688 28.75 26.25 28.47 26.25 28.125V8.75H3.75Z" fill="#F6EFE7"/>
<path d="M29.375 8.74999H0.624991C0.423741 8.74999 0.234991 8.65374 0.118741 8.48999C-8.71159e-06 8.32749 -0.0312587 8.11749 0.0312413 7.92749L2.53124 0.427492C2.61749 0.172492 2.85624 -7.62939e-06 3.12499 -7.62939e-06H26.875C27.1437 -7.62939e-06 27.3825 0.172492 27.4687 0.427492L29.9687 7.92749C30.0325 8.11749 30 8.32749 29.8825 8.49124C29.765 8.65374 29.5762 8.74999 29.375 8.74999ZM1.49124 7.49999H28.5075L26.425 1.24999H3.57499L1.49124 7.49999Z" fill="#F6EFE7"/>
<path d="M23.125 30H6.875C6.53 30 6.25 29.72 6.25 29.375V14.375C6.25 14.03 6.53 13.75 6.875 13.75H23.125C23.47 13.75 23.75 14.03 23.75 14.375V29.375C23.75 29.72 23.47 30 23.125 30ZM7.5 28.75H22.5V15H7.5V28.75Z" fill="#F6EFE7"/>
<path d="M23.125 20H6.875C6.53 20 6.25 19.72 6.25 19.375C6.25 19.03 6.53 18.75 6.875 18.75H23.125C23.47 18.75 23.75 19.03 23.75 19.375C23.75 19.72 23.47 20 23.125 20Z" fill="#F6EFE7"/>
<path d="M23.125 25H6.875C6.53 25 6.25 24.72 6.25 24.375C6.25 24.03 6.53 23.75 6.875 23.75H23.125C23.47 23.75 23.75 24.03 23.75 24.375C23.75 24.72 23.47 25 23.125 25Z" fill="#F6EFE7"/>
</g>
<defs>
<clipPath id="clip0">
<rect width="30" height="30" fill="white"/>
</clipPath>
</defs>
</svg>
